<svg xmlns="http://www.w3.org/2000/svg"><symbol id="icon-jira-blue" viewBox="0 0 448.4 174.2"><style>.st0{fill:#205081}</style><path d="M223.9 42h-19.3c-1.7 0-3.1 1.4-3.1 3.2v117.6c0 1.7 1.4 3.1 3.1 3.1h19.3c1.7 0 3.1-1.4 3.1-3.1V45.2c0-1.8-1.4-3.2-3.1-3.2zM347.8 160.7l-26.9-38.8c11.6-4.8 17.5-14.9 17.5-30V76.1c0-23.6-12.3-34.1-39.9-34.1h-47.9c-1.7 0-3.1 1.4-3.1 3.2v117.6c0 1.7 1.4 3.1 3.1 3.1h19.3c1.7 0 3.1-1.4 3.1-3.1v-36.9h19.8l26.9 38.7c.6.8 1.6 1.4 2.6 1.4h23.1c1.7 0 3.1-1.4 3.1-3.1 0-.9-.3-1.6-.7-2.2zM273 64.9h24.5c12.7 0 15.2 5 15.2 13v12c0 10-3.8 13.4-15.2 13.4H273V64.9z"/><path d="M411.2 44.2c-.4-1.3-1.6-2.2-3-2.2h-29.4c-1.4 0-2.6.9-3 2.2l-37.1 117.6c-.3 1-.1 2 .5 2.8s1.5 1.3 2.5 1.3H362c1.4 0 2.6-.9 3-2.3l25.5-86.5s.7-2.2 3-2.2c2.4 0 2.9 2.2 2.9 2.2l11.9 41H392c-1.4 0-2.6.9-3 2.3l-4.6 16.2c-.3.9-.1 2 .5 2.8s1.5 1.2 2.5 1.2h27.5l7.1 22.9c.4 1.3 1.6 2.2 3 2.2h20.2c1 0 1.9-.5 2.5-1.3s.8-1.9.5-2.8l-37-117.4zM178.6 42H159c-1.7 0-3 1.3-3 3v92c0 11.6-8.8 15.4-14.8 15.7-.8 0-1.7.5-2.3 1.3-.5.8-.7 1.7-.4 2.6l4.8 15.5c.4 1.3 1.8 2.1 4 2.1 18.7 0 34.3-14.7 34.3-34.4V45c0-.8-.3-1.6-.9-2.1-.6-.6-1.3-.9-2.1-.9zM27.1 9.9c-6 0-10.9 4.9-10.9 10.9s4.9 10.9 10.9 10.9S38 26.8 38 20.8c-.1-6-4.9-10.9-10.9-10.9zM98.5 9.9c-6 0-10.9 4.9-10.9 10.9s4.9 10.9 10.9 10.9 10.9-4.9 10.9-10.9-4.9-10.9-10.9-10.9z"/><g><path d="M62.8 0c-6 0-10.9 4.9-10.9 10.9s4.9 10.9 10.9 10.9 10.9-4.9 10.9-10.9C73.7 4.8 68.8 0 62.8 0z"/></g><g><path d="M124.3 40.3c-.6-.5-1.3-.7-2.1-.7-.4 0-.8.1-1.2.2-7.4 2.8-14.8 5-21.7 6.5-1.4.3-2.5 1.4-3 2.6-5 13.6-17.7 26.6-31 40.2-.5.5-1.3 1.2-2.5 1.2s-2-.6-2.5-1.2c-13.3-13.6-26-26.5-31-40.2-.5-1.2-1.6-2.3-3-2.6-6.8-1.6-14.3-3.8-21.7-6.6-.4-.2-.8-.2-1.2-.2-.7 0-1.5.2-2.1.7-.9.7-1.4 1.9-1.3 3 1.1 11.3 5.6 22.4 13.7 34 7.6 10.9 17.5 21 27.1 30.8 17.6 18 34.3 35 35.8 54.7a3.4 3.4 0 0 0 3.4 3.2h20.7c.9 0 1.8-.4 2.5-1.1.6-.7 1-1.6.9-2.5-.7-13.2-5.6-26.4-15.2-40.4-2-2.9-4.1-5.8-6.4-8.6-.9-1.1-.5-2.5.2-3.3l2.1-2.1c9.6-9.8 19.5-19.9 27.1-30.8 8.1-11.6 12.6-22.6 13.7-34 .1-.9-.4-2.1-1.3-2.8zM40.5 123.4c-.5-.5-1.2-1-2.4-1-1.5 0-2.5 1.1-2.8 1.6-8.7 13.3-13.2 25.8-13.8 38.4 0 .9.3 1.9.9 2.5.6.7 1.5 1.1 2.5 1.1h20.7c1.8 0 3.3-1.4 3.4-3.2.5-6.1 2.3-12.1 5.8-18.5 1.2-2.2.3-4.3-.4-5.2-3.5-4.5-7.6-9.2-13.9-15.7z"/><path d="M62.8 50.4c6.5 0 10.3-.4 11.6-.4 1.6 0 3.1 1.3 3.1 3.2 0 .5-.1.9-.3 1.3-.9 2.3-4.8 10.6-12.1 17.7-.8.8-1.8.9-2.4.9-.6 0-1.6-.1-2.4-.9-7.3-7.1-11.2-15.4-12.1-17.7-.1-.3-.3-.7-.3-1.3 0-1.8 1.5-3.2 3.1-3.2 1.5 0 5.3.4 11.8.4z"/></g></symbol><symbol id="octicon-git-branch" viewBox="0 0 10 16"><title>git-branch</title><path d="M10 5c0-1.11-.89-2-2-2a1.993 1.993 0 0 0-1 3.72v.3c-.02.52-.23.98-.63 1.38-.4.4-.86.61-1.38.63-.83.02-1.48.16-2 .45V4.72a1.993 1.993 0 0 0-1-3.72C.88 1 0 1.89 0 3a2 2 0 0 0 1 1.72v6.56c-.59.35-1 .99-1 1.72 0 1.11.89 2 2 2 1.11 0 2-.89 2-2 0-.53-.2-1-.53-1.36.09-.06.48-.41.59-.47.25-.11.56-.17.94-.17 1.05-.05 1.95-.45 2.75-1.25S8.95 7.77 9 6.73h-.02C9.59 6.37 10 5.73 10 5zM2 1.8c.66 0 1.2.55 1.2 1.2 0 .65-.55 1.2-1.2 1.2C1.35 4.2.8 3.65.8 3c0-.65.55-1.2 1.2-1.2zm0 12.41c-.66 0-1.2-.55-1.2-1.2 0-.65.55-1.2 1.2-1.2.65 0 1.2.55 1.2 1.2 0 .65-.55 1.2-1.2 1.2zm6-8c-.66 0-1.2-.55-1.2-1.2 0-.65.55-1.2 1.2-1.2.65 0 1.2.55 1.2 1.2 0 .65-.55 1.2-1.2 1.2z" fill-rule="evenodd"/></symbol><symbol id="octicon-git-commit" viewBox="0 0 14 16"><title>git-commit</title><path d="M10.86 7c-.45-1.72-2-3-3.86-3-1.86 0-3.41 1.28-3.86 3H0v2h3.14c.45 1.72 2 3 3.86 3 1.86 0 3.41-1.28 3.86-3H14V7h-3.14zM7 10.2c-1.22 0-2.2-.98-2.2-2.2 0-1.22.98-2.2 2.2-2.2 1.22 0 2.2.98 2.2 2.2 0 1.22-.98 2.2-2.2 2.2z" fill-rule="evenodd"/></symbol><symbol id="octicon-git-pull-request" viewBox="0 0 12 16"><title>git-pull-request</title><path d="M11 11.28V5c-.03-.78-.34-1.47-.94-2.06C9.46 2.35 8.78 2.03 8 2H7V0L4 3l3 3V4h1c.27.02.48.11.69.31.21.2.3.42.31.69v6.28A1.993 1.993 0 0 0 10 15a1.993 1.993 0 0 0 1-3.72zm-1 2.92c-.66 0-1.2-.55-1.2-1.2 0-.65.55-1.2 1.2-1.2.65 0 1.2.55 1.2 1.2 0 .65-.55 1.2-1.2 1.2zM4 3c0-1.11-.89-2-2-2a1.993 1.993 0 0 0-1 3.72v6.56A1.993 1.993 0 0 0 2 15a1.993 1.993 0 0 0 1-3.72V4.72c.59-.34 1-.98 1-1.72zm-.8 10c0 .66-.55 1.2-1.2 1.2-.65 0-1.2-.55-1.2-1.2 0-.65.55-1.2 1.2-1.2.65 0 1.2.55 1.2 1.2zM2 4.2C1.34 4.2.8 3.65.8 3c0-.65.55-1.2 1.2-1.2.65 0 1.2.55 1.2 1.2 0 .65-.55 1.2-1.2 1.2z" fill-rule="evenodd"/></symbol><symbol id="octicon-link" viewBox="0 0 16 16"><title>link</title><path d="M4 9h1v1H4c-1.5 0-3-1.69-3-3.5S2.55 3 4 3h4c1.45 0 3 1.69 3 3.5 0 1.41-.91 2.72-2 3.25V8.59c.58-.45 1-1.27 1-2.09C10 5.22 8.98 4 8 4H4c-.98 0-2 1.22-2 2.5S3 9 4 9zm9-3h-1v1h1c1 0 2 1.22 2 2.5S13.98 12 13 12H9c-.98 0-2-1.22-2-2.5 0-.83.42-1.64 1-2.09V6.25c-1.09.53-2 1.84-2 3.25C6 11.31 7.55 13 9 13h4c1.45 0 3-1.69 3-3.5S14.5 6 13 6z" fill-rule="evenodd"/></symbol><symbol id="octicon-mark-github" viewBox="0 0 16 16"><title>mark-github</title><path d="M8 0C3.58 0 0 3.58 0 8c0 3.54 2.29 6.53 5.47 7.59.4.07.55-.17.55-.38 0-.19-.01-.82-.01-1.49-2.01.37-2.53-.49-2.69-.94-.09-.23-.48-.94-.82-1.13-.28-.15-.68-.52-.01-.53.63-.01 1.08.58 1.23.82.72 1.21 1.87.87 2.33.66.07-.52.28-.87.51-1.07-1.78-.2-3.64-.89-3.64-3.95 0-.87.31-1.59.82-2.15-.08-.2-.36-1.02.08-2.12 0 0 .67-.21 2.2.82.64-.18 1.32-.27 2-.27.68 0 1.36.09 2 .27 1.53-1.04 2.2-.82 2.2-.82.44 1.1.16 1.92.08 2.12.51.56.82 1.27.82 2.15 0 3.07-1.87 3.75-3.65 3.95.29.25.54.73.54 1.48 0 1.07-.01 1.93-.01 2.2 0 .21.15.46.55.38A8.013 8.013 0 0 0 16 8c0-4.42-3.58-8-8-8z" fill-rule="evenodd"/></symbol><symbol id="octicon-server" viewBox="0 0 12 16"><title>server</title><path d="M11 6H1c-.55 0-1 .45-1 1v2c0 .55.45 1 1 1h10c.55 0 1-.45 1-1V7c0-.55-.45-1-1-1zM2 9H1V7h1v2zm2 0H3V7h1v2zm2 0H5V7h1v2zm2 0H7V7h1v2zm3-8H1c-.55 0-1 .45-1 1v2c0 .55.45 1 1 1h10c.55 0 1-.45 1-1V2c0-.55-.45-1-1-1zM2 4H1V2h1v2zm2 0H3V2h1v2zm2 0H5V2h1v2zm2 0H7V2h1v2zm3-1h-1V2h1v1zm0 8H1c-.55 0-1 .45-1 1v2c0 .55.45 1 1 1h10c.55 0 1-.45 1-1v-2c0-.55-.45-1-1-1zm-9 3H1v-2h1v2zm2 0H3v-2h1v2zm2 0H5v-2h1v2zm2 0H7v-2h1v2z" fill-rule="evenodd"/></symbol><symbol id="octicon-tag" viewBox="0 0 14 16"><title>tag</title><path d="M7.73 1.73C7.26 1.26 6.62 1 5.96 1H3.5C2.13 1 1 2.13 1 3.5v2.47c0 .66.27 1.3.73 1.77l6.06 6.06c.39.39 1.02.39 1.41 0l4.59-4.59a.996.996 0 0 0 0-1.41L7.73 1.73zM2.38 7.09c-.31-.3-.47-.7-.47-1.13V3.5c0-.88.72-1.59 1.59-1.59h2.47c.42 0 .83.16 1.13.47l6.14 6.13-4.73 4.73-6.13-6.15zM3.01 3h2v2H3V3h.01z" fill-rule="evenodd"/></symbol></svg>