<?xml version="1.0" encoding="UTF-8" standalone="no"?>
<svg
   xmlns:dc="http://purl.org/dc/elements/1.1/"
   xmlns:cc="http://creativecommons.org/ns#"
   xmlns:rdf="http://www.w3.org/1999/02/22-rdf-syntax-ns#"
   xmlns:svg="http://www.w3.org/2000/svg"
   xmlns="http://www.w3.org/2000/svg"
   height="217.60001"
   width="324.50134"
   version="1.1"
   viewBox="0 0 304.22 204"
   id="svg4074">
  <title
     id="title4854">Toy dolphin</title>
  <defs
     id="defs4076">
    <linearGradient
       x1="890.62"
       y1="293.19"
       gradientTransform="translate(0,-20)"
       x2="888"
       gradientUnits="userSpaceOnUse"
       y2="306.69"
       id="linearGradient4008">
      <stop
         offset="0"
         style="stop-color:#eef5fb icc-color(Fogra27L-CMYK-Coated-Press, 0.08085106, 0.01702128, 0.00425532, 0)"
         id="stop4004" />
      <stop
         offset="1"
         style="stop-color:#b5d6e5 icc-color(Fogra27L-CMYK-Coated-Press, 0.2638298, 0.01702128, 0.00425532, 0.09787234)"
         id="stop4006" />
    </linearGradient>
  </defs>
  <g
     transform="translate(-223.07,-395.4)"
     id="layer1">
    <g
       transform="matrix(2.1361,-0.26262,0.26262,2.1361,-1660.5,179.09)"
       id="g4041">
      <path
         style="color:#000000;fill:#2c4e8e icc-color(Fogra27L-CMYK-Coated-Press, 0.85106385, 0.70102996, 0.05717555, 0.10730144)"
         d="m 851.62,253.1 c 2.4782,8.1916 6.1374,15.838 15.384,20.906 -2.3026,20.477 81.702,16.638 91.513,6.7057 6.9066,8.5225 25.679,23.499 27.672,20.933 0.42343,-4.0623 -3.4001,-10.626 -6.1362,-14.643 6.3379,-2.8598 3.8338,-11.272 -0.48811,-10.808 -4.5458,0.48742 -7.7486,0.99615 -10.792,-0.41191 -4.6719,-2.1616 -9.8613,-1.5778 -9.8613,-1.5778 1.021,-4.0027 2.3254,-7.5562 -0.98613,-10.059 l -12.286,-9.2837 c -6.7752,-5.1196 -5.8454,-12.955 -15.129,-18.131 4.5426,-23.464 -6.9166,-26.273 -30.176,-13.806 -13.75,-1.8264 -22.365,1.212 -28.401,13.214 -8.8289,2.6901 -19.58,7.5255 -20.314,16.961 z"
         id="path3197" />
      <rect
         x="913.59003"
         y="-95.194"
         width="10.898"
         height="17.643999"
         transform="rotate(21.373)"
         rx="5.4489999"
         style="color:#000000;fill:#ffffff icc-color(Fogra27L-CMYK-Coated-Press, 0, 0, 0, 0)"
         ry="8.8221998"
         id="rect3984" />
      <path
         style="color:#000000;fill:#000200 icc-color(Fogra27L-CMYK-Coated-Press, 1, 1, 1, 1)"
         d="m 888.88,246.06 c -2.474,0.22774 -5.1778,2.7707 -6.625,6.4688 -1.0352,2.645 -1.1985,5.2828 -0.59375,7.25 5.1572,-1.7888 8.6094,-5.2344 7.7812,-13.719 -0.1868,-0.0102 -0.37219,-0.0175 -0.5625,0 z"
         id="rect3986" />
      <path
         style="color:#000000;fill:url(#linearGradient4008)"
         d="m 851.62,253.09 c 2.4782,8.1916 6.1287,15.838 15.375,20.906 -2.2898,20.364 80.774,16.685 91.344,6.875 l 0.16,-3.62 -52.72,-5.19 c -3.4636,-8.3176 -13.692,-12.487 -21.199,-5.325 -12.415,-4.6046 -24.517,-8.182 -32.957,-13.644 z"
         id="path3991" />
      <path
         style="fill:#83a0af icc-color(Fogra27L-CMYK-Coated-Press, 0.31063831, 0.02978723, 0.00425532, 0.38297874)"
         d="m 862.91,271.33 c 1.2355,0.986 2.6185,1.8614 4.0894,2.6709 -0.11921,0.6525 -0.0804,1.4132 0.0666,2.0105 6.0612,1.4532 14.56,1.2899 22.058,-0.76052 -7.9532,0.54618 -19.042,-0.38258 -26.214,-3.9209 z"
         id="path4010" />
      <path
         style="color:#000000;fill:#2c4e8e icc-color(Fogra27L-CMYK-Coated-Press, 0.85106385, 0.70102996, 0.05717555, 0.10730144)"
         d="m 913.12,269 c -1.6837,1.032 -1.507,3.3281 -2.7424,4.3839 -1.1664,0.99679 -1.893,0.75225 -2.6988,1.7626 -9.9608,12.49 6.1786,25.735 12.691,32.728 2.581,1.9004 6.0311,2.8843 6.625,-2.125 0.63201,-6.8878 0.14541,-15.23 -3.1268,-27.193 -0.40802,-1.4918 -2.1094,-3.0398 -2.6072,-4.6484 -0.46403,-1.4992 0.2815,-3.051 -0.26601,-4.6587 z"
         id="path4012" />
      <path
         style="fill:#b4c9d6 icc-color(Fogra27L-CMYK-Coated-Press, 0.20851064, 0.02978723, 0.00425532, 0.18723404)"
         d="m 945.97,265.78 c 2.8614,1.5856 5.9467,2.6847 9.4567,2.8608 1.3281,0.12812 0.8509,-0.147 0.0751,-0.68421 -2.5789,-1.6521 -5.7344,-2.3877 -9.2748,-2.8073 -1.7749,-0.26164 -1.5082,-0.0914 -0.25774,0.63058 z"
         id="path4037" />
      <path
         style="fill:#b4c9d6 icc-color(Fogra27L-CMYK-Coated-Press, 0.20851064, 0.02978723, 0.00425532, 0.18723404)"
         d="m 931.38,252.75 c -10.134,-6.5564 -20.057,-13.795 -32.125,-14.5 -3.114,-0.18181 -2.8312,-5.3885 1.625,-4.25 10.491,2.6801 20.942,6.4143 30.5,18.75 z"
         id="path4039" />
    </g>
  </g>
  <metadata
     id="metadata18">
    <rdf:RDF>
      <cc:Work>
        <dc:format>image/svg+xml</dc:format>
        <dc:type
           rdf:resource="http://purl.org/dc/dcmitype/StillImage" />
        <cc:license
           rdf:resource="http://creativecommons.org/licenses/publicdomain/" />
        <dc:publisher>
          <cc:Agent
             rdf:about="http://openclipart.org/">
            <dc:title>Openclipart</dc:title>
          </cc:Agent>
        </dc:publisher>
        <dc:title>Toy dolphin</dc:title>
        <dc:date>2013-03-23T05:26:54</dc:date>
        <dc:description>A little toy dolphin.</dc:description>
        <dc:source>https://openclipart.org/detail/176479/dolphin-by-azex-176479</dc:source>
        <dc:creator>
          <cc:Agent>
            <dc:title>azex</dc:title>
          </cc:Agent>
        </dc:creator>
        <dc:subject>
          <rdf:Bag>
            <rdf:li>CMYK</rdf:li>
            <rdf:li>dolphin</rdf:li>
            <rdf:li>nature</rdf:li>
            <rdf:li>not fish</rdf:li>
            <rdf:li>sea</rdf:li>
            <rdf:li>toy</rdf:li>
          </rdf:Bag>
        </dc:subject>
      </cc:Work>
      <cc:License
         rdf:about="http://creativecommons.org/licenses/publicdomain/">
        <cc:permits
           rdf:resource="http://creativecommons.org/ns#Reproduction" />
        <cc:permits
           rdf:resource="http://creativecommons.org/ns#Distribution" />
        <cc:permits
           rdf:resource="http://creativecommons.org/ns#DerivativeWorks" />
      </cc:License>
    </rdf:RDF>
  </metadata>
</svg>
